<svg width="200" height="200" viewBox="0 0 200 200" fill="none" xmlns="http://www.w3.org/2000/svg">
  <!-- Dark background for icon -->
  <rect width="200" height="200" rx="40" fill="#040D20"/>

  <!-- Hexagon mark, centered -->
  <g transform="translate(16, 16) scale(1.9)">
    <path d="M44 4L80 24V64L44 84L8 64V24L44 4Z" fill="#040D20" stroke="#0057FF" stroke-width="1.5"/>
    <line x1="44" y1="24" x2="26" y2="46" stroke="#0057FF" stroke-opacity="0.5" stroke-width="1.3"/>
    <line x1="44" y1="24" x2="62" y2="46" stroke="#0057FF" stroke-opacity="0.5" stroke-width="1.3"/>
    <line x1="26" y1="46" x2="44" y2="64" stroke="#00E599" stroke-opacity="0.65" stroke-width="1.3"/>
    <line x1="62" y1="46" x2="44" y2="64" stroke="#00E599" stroke-opacity="0.65" stroke-width="1.3"/>
    <line x1="26" y1="46" x2="62" y2="46" stroke="#7B4FFF" stroke-opacity="0.35" stroke-width="1"/>
    <circle cx="44" cy="24" r="5.5" fill="#0057FF"/>
    <circle cx="44" cy="24" r="9" fill="#0057FF" fill-opacity="0.15"/>
    <circle cx="26" cy="46" r="4.5" fill="#3D80FF"/>
    <circle cx="62" cy="46" r="4.5" fill="#3D80FF"/>
    <circle cx="44" cy="64" r="5.5" fill="#00E599"/>
    <circle cx="44" cy="64" r="9" fill="#00E599" fill-opacity="0.15"/>
    <circle cx="20" cy="32" r="2.8" fill="#7B4FFF" fill-opacity="0.8"/>
    <circle cx="68" cy="32" r="2.8" fill="#7B4FFF" fill-opacity="0.8"/>
    <circle cx="20" cy="58" r="2.2" fill="#FF8C00" fill-opacity="0.7"/>
    <circle cx="68" cy="58" r="2.2" fill="#FF8C00" fill-opacity="0.7"/>
    <circle cx="44" cy="44" r="38" stroke="#0057FF" stroke-width="0.5" stroke-opacity="0.12" stroke-dasharray="3 5"/>
  </g>
</svg>
